<svg width="185" height="33" viewBox="0 0 185 33" fill="none" xmlns="http://www.w3.org/2000/svg">
<path d="M0 15.954L2.99608e-05 15.9691L0 15.9843C0 17.9393 1.60023 19.5242 3.5742 19.5242C4.57846 19.5242 5.486 19.114 6.13528 18.4535C6.711 17.7551 7.79184 17.1916 9.08656 17.0014C9.49175 16.9419 9.87891 16.9414 10.2635 16.9414H18.0704C18.0807 16.9414 18.0909 16.9414 18.1011 16.9414C20.2006 16.9517 21.7629 18.0111 22.7224 19.5162C23.8996 21.3626 25.9896 22.5932 28.3635 22.5932C32.0488 22.5932 35.0364 19.6343 35.0364 15.9843L35.0363 15.9691L35.0364 15.954C35.0364 12.3207 32.0488 9.3754 28.3635 9.3754C25.9896 9.3754 23.8996 10.6004 22.7224 12.4383C21.7629 13.9364 20.2006 14.991 18.1011 15.0012C18.0909 15.0013 18.0807 15.0012 18.0704 15.0012H10.2635C9.87891 15.0012 9.49175 15.0008 9.08656 14.9415C7.79184 14.7522 6.711 14.1912 6.13528 13.4961C5.486 12.8386 4.57846 12.4303 3.5742 12.4303C1.60023 12.4303 0 14.0079 0 15.954Z" fill="white" fill-opacity="0.4"/>
<path d="M23.718 27.5377H29.3855V27.5495H33.1482C33.5333 27.5495 33.921 27.5491 34.3268 27.4897C35.6234 27.3002 36.7058 26.7386 37.2823 26.0425C37.9325 25.3843 38.8414 24.9755 39.8471 24.9755C41.8239 24.9755 43.4265 26.555 43.4265 28.5034L43.4264 28.5186L43.4265 28.5337C43.4265 30.4732 41.8239 32.0454 39.8471 32.0454C38.8414 32.0454 37.9325 31.6385 37.2823 30.9833C36.7058 30.2904 35.6234 29.7314 34.3268 29.5427C33.921 29.4836 33.5333 29.4832 33.1482 29.4832L27.4806 29.4832V29.4714H23.718C23.3329 29.4714 22.9452 29.4718 22.5394 29.5312C21.2428 29.7207 20.1604 30.2823 19.5838 30.9784C18.9336 31.6366 18.0248 32.0454 17.0191 32.0454C15.0422 32.0454 13.4397 30.4659 13.4397 28.5175L13.4397 28.5023L13.4397 28.4873C13.4397 26.5477 15.0422 24.9755 17.0191 24.9755C18.0248 24.9755 18.9336 25.3824 19.5838 26.0376C20.1604 26.7305 21.2428 27.2895 22.5394 27.4782C22.9452 27.5373 23.3329 27.5377 23.718 27.5377Z" fill="white" fill-opacity="0.4"/>
<path d="M23.718 2.56225H29.3855V2.57406H33.1482C33.5333 2.57406 33.921 2.57361 34.3268 2.51428C35.6234 2.32471 36.7058 1.76311 37.2823 1.06707C37.9325 0.408825 38.8414 0 39.8471 0C41.8239 0 43.4265 1.57953 43.4265 3.52798L43.4264 3.54312L43.4265 3.55819C43.4265 5.4977 41.8239 7.06998 39.8471 7.06998C38.8414 7.06998 37.9325 6.66303 37.2823 6.00781C36.7058 5.31496 35.6234 4.75594 34.3268 4.56723C33.921 4.50818 33.5333 4.50773 33.1482 4.50773L27.4806 4.50773V4.49592H23.718C23.3329 4.49592 22.9452 4.49637 22.5394 4.5557C21.2428 4.74527 20.1604 5.30687 19.5838 6.00291C18.9336 6.66116 18.0248 7.06998 17.0191 7.06998C15.0422 7.06998 13.4397 5.49045 13.4397 3.542L13.4397 3.52686L13.4397 3.51179C13.4397 1.57228 15.0422 0 17.0191 0C18.0248 0 18.9336 0.406947 19.5838 1.06217C20.1604 1.75502 21.2428 2.31404 22.5394 2.50275C22.9452 2.5618 23.3329 2.56225 23.718 2.56225Z" fill="white" fill-opacity="0.4"/>
<ellipse cx="43.4265" cy="15.9843" rx="3.57355" ry="3.53499" fill="white" fill-opacity="0.4"/>
<path d="M69.3267 13.7939V16.4834H61.2451V13.7939H69.3267ZM61.9966 5.80469V25H58.793V5.80469H61.9966ZM71.8315 5.80469V25H68.6411V5.80469H71.8315ZM88.4824 13.8335V17.103C88.4824 18.4565 88.3242 19.6431 88.0078 20.6626C87.7002 21.6821 87.252 22.5347 86.6631 23.2202C86.083 23.897 85.3799 24.4067 84.5537 24.7495C83.7363 25.0923 82.8223 25.2637 81.8115 25.2637C80.8096 25.2637 79.8955 25.0923 79.0693 24.7495C78.252 24.4067 77.5444 23.897 76.9468 23.2202C76.3579 22.5347 75.9009 21.6821 75.5757 20.6626C75.2593 19.6431 75.1011 18.4565 75.1011 17.103V13.8335C75.1011 12.4624 75.2593 11.2627 75.5757 10.2344C75.8921 9.19727 76.3447 8.33154 76.9336 7.63721C77.5312 6.94287 78.2388 6.41992 79.0562 6.06836C79.8823 5.7168 80.792 5.54102 81.7852 5.54102C82.7959 5.54102 83.71 5.7168 84.5273 6.06836C85.3535 6.41992 86.061 6.94287 86.6499 7.63721C87.2388 8.33154 87.6914 9.19727 88.0078 10.2344C88.3242 11.2627 88.4824 12.4624 88.4824 13.8335ZM85.3052 17.103V13.8071C85.3052 12.8315 85.2261 11.9966 85.0679 11.3022C84.9185 10.5991 84.6943 10.0278 84.3955 9.58838C84.0967 9.14014 83.7275 8.81055 83.2881 8.59961C82.8574 8.37988 82.3564 8.27002 81.7852 8.27002C81.2314 8.27002 80.7349 8.37988 80.2954 8.59961C79.8647 8.81055 79.4956 9.14014 79.188 9.58838C78.8892 10.0278 78.6606 10.5991 78.5024 11.3022C78.353 11.9966 78.2783 12.8315 78.2783 13.8071V17.103C78.2783 18.061 78.3574 18.8872 78.5156 19.5815C78.6738 20.2671 78.9023 20.8296 79.2012 21.269C79.5088 21.6997 79.8823 22.0205 80.3218 22.2314C80.7612 22.4424 81.2578 22.5479 81.8115 22.5479C82.374 22.5479 82.875 22.4424 83.3145 22.2314C83.7539 22.0205 84.1187 21.6997 84.4087 21.269C84.7075 20.8296 84.9316 20.2671 85.0811 19.5815C85.2305 18.8872 85.3052 18.061 85.3052 17.103ZM97.8955 16.3516H93.98L93.9668 13.8994H97.4341C97.9702 13.8994 98.4272 13.7939 98.8052 13.583C99.1831 13.3721 99.4688 13.0645 99.6621 12.6602C99.8643 12.2559 99.9653 11.7681 99.9653 11.1968C99.9653 10.564 99.8774 10.0498 99.7017 9.6543C99.5259 9.25 99.249 8.95557 98.8711 8.771C98.502 8.58643 98.0273 8.49414 97.4473 8.49414H94.9292V25H91.7256V5.80469H97.4473C98.3438 5.80469 99.1436 5.91016 99.8467 6.12109C100.559 6.32324 101.161 6.63525 101.653 7.05713C102.145 7.479 102.519 8.01953 102.773 8.67871C103.037 9.3291 103.169 10.1025 103.169 10.999C103.169 11.7812 103.002 12.502 102.668 13.1611C102.334 13.8115 101.837 14.3477 101.178 14.7695C100.528 15.1826 99.7192 15.4287 98.7524 15.5078L97.8955 16.3516ZM97.7769 25H92.9253L94.4019 22.3237H97.7769C98.3481 22.3237 98.8184 22.2007 99.1875 21.9546C99.5566 21.7085 99.8335 21.3657 100.018 20.9263C100.203 20.4868 100.295 19.9727 100.295 19.3838C100.295 18.7686 100.216 18.2324 100.058 17.7754C99.8994 17.3184 99.6445 16.9668 99.293 16.7207C98.9414 16.4746 98.4756 16.3516 97.8955 16.3516H94.6655L94.6919 13.8994H98.8184L99.5566 14.8354C100.479 14.853 101.231 15.0815 101.811 15.521C102.391 15.9517 102.817 16.5098 103.09 17.1953C103.362 17.8809 103.499 18.6147 103.499 19.397C103.499 20.6187 103.27 21.647 102.813 22.4819C102.356 23.3081 101.701 23.9365 100.849 24.3672C100.005 24.7891 98.981 25 97.7769 25ZM119.728 13.8335V17.103C119.728 18.4565 119.569 19.6431 119.253 20.6626C118.945 21.6821 118.497 22.5347 117.908 23.2202C117.328 23.897 116.625 24.4067 115.799 24.7495C114.981 25.0923 114.067 25.2637 113.057 25.2637C112.055 25.2637 111.141 25.0923 110.314 24.7495C109.497 24.4067 108.79 23.897 108.192 23.2202C107.603 22.5347 107.146 21.6821 106.821 20.6626C106.504 19.6431 106.346 18.4565 106.346 17.103V13.8335C106.346 12.4624 106.504 11.2627 106.821 10.2344C107.137 9.19727 107.59 8.33154 108.179 7.63721C108.776 6.94287 109.484 6.41992 110.301 6.06836C111.127 5.7168 112.037 5.54102 113.03 5.54102C114.041 5.54102 114.955 5.7168 115.772 6.06836C116.599 6.41992 117.306 6.94287 117.895 7.63721C118.484 8.33154 118.937 9.19727 119.253 10.2344C119.569 11.2627 119.728 12.4624 119.728 13.8335ZM116.55 17.103V13.8071C116.55 12.8315 116.471 11.9966 116.313 11.3022C116.164 10.5991 115.939 10.0278 115.641 9.58838C115.342 9.14014 114.973 8.81055 114.533 8.59961C114.103 8.37988 113.602 8.27002 113.03 8.27002C112.477 8.27002 111.98 8.37988 111.541 8.59961C111.11 8.81055 110.741 9.14014 110.433 9.58838C110.134 10.0278 109.906 10.5991 109.748 11.3022C109.598 11.9966 109.523 12.8315 109.523 13.8071V17.103C109.523 18.061 109.603 18.8872 109.761 19.5815C109.919 20.2671 110.147 20.8296 110.446 21.269C110.754 21.6997 111.127 22.0205 111.567 22.2314C112.006 22.4424 112.503 22.5479 113.057 22.5479C113.619 22.5479 114.12 22.4424 114.56 22.2314C114.999 22.0205 115.364 21.6997 115.654 21.269C115.953 20.8296 116.177 20.2671 116.326 19.5815C116.476 18.8872 116.55 18.061 116.55 17.103ZM133.663 22.3237V25H125.331V22.3237H133.663ZM126.174 5.80469V25H122.971V5.80469H126.174ZM132.542 13.7939V16.4307H125.331V13.7939H132.542ZM133.583 5.80469V8.49414H125.331V5.80469H133.583ZM141.652 15.5078V18.0918H135.68V15.5078H141.652ZM151.645 5.80469V25H148.455V5.80469H151.645ZM156.536 5.80469V8.49414H143.616V5.80469H156.536ZM165.237 16.3516H161.322L161.309 13.8994H164.776C165.312 13.8994 165.769 13.7939 166.147 13.583C166.525 13.3721 166.811 13.0645 167.004 12.6602C167.206 12.2559 167.307 11.7681 167.307 11.1968C167.307 10.564 167.219 10.0498 167.043 9.6543C166.868 9.25 166.591 8.95557 166.213 8.771C165.844 8.58643 165.369 8.49414 164.789 8.49414H162.271V25H159.067V5.80469H164.789C165.686 5.80469 166.485 5.91016 167.188 6.12109C167.9 6.32324 168.502 6.63525 168.995 7.05713C169.487 7.479 169.86 8.01953 170.115 8.67871C170.379 9.3291 170.511 10.1025 170.511 10.999C170.511 11.7812 170.344 12.502 170.01 13.1611C169.676 13.8115 169.179 14.3477 168.52 14.7695C167.87 15.1826 167.061 15.4287 166.094 15.5078L165.237 16.3516ZM165.119 25H160.267L161.744 22.3237H165.119C165.69 22.3237 166.16 22.2007 166.529 21.9546C166.898 21.7085 167.175 21.3657 167.36 20.9263C167.544 20.4868 167.637 19.9727 167.637 19.3838C167.637 18.7686 167.558 18.2324 167.399 17.7754C167.241 17.3184 166.986 16.9668 166.635 16.7207C166.283 16.4746 165.817 16.3516 165.237 16.3516H162.007L162.034 13.8994H166.16L166.898 14.8354C167.821 14.853 168.573 15.0815 169.153 15.521C169.733 15.9517 170.159 16.5098 170.432 17.1953C170.704 17.8809 170.84 18.6147 170.84 19.397C170.84 20.6187 170.612 21.647 170.155 22.4819C169.698 23.3081 169.043 23.9365 168.19 24.3672C167.347 24.7891 166.323 25 165.119 25Z" fill="white" fill-opacity="0.4"/>
<path d="M180.201 5.04525H181.322C182.134 5.04525 182.812 5.20362 183.356 5.52036C183.904 5.8371 184.316 6.25377 184.592 6.77036C184.868 7.28318 185.004 7.8356 185 8.4276C185.004 9.09502 184.845 9.68891 184.523 10.2093C184.205 10.7259 183.772 11.1331 183.224 11.431C182.68 11.7251 182.067 11.8722 181.385 11.8722C180.979 11.8722 180.579 11.81 180.184 11.6855C179.793 11.5573 179.435 11.3273 179.109 10.9955L179.023 11.0294V8.26923C179.027 8.60483 179.107 8.91214 179.264 9.19118C179.421 9.47021 179.646 9.69457 179.937 9.86425C180.232 10.0302 180.584 10.1131 180.994 10.1131C181.4 10.1131 181.751 10.0302 182.046 9.86425C182.345 9.69834 182.577 9.47775 182.741 9.20249C182.906 8.92723 182.987 8.62368 182.983 8.29186C182.987 7.94495 182.904 7.63763 182.736 7.36991C182.567 7.10219 182.339 6.89103 182.052 6.73643C181.768 6.58183 181.444 6.50453 181.08 6.50453H180.201V5.04525ZM180.793 0C181.318 0 181.805 0.0773003 182.253 0.231901C182.705 0.386501 183.098 0.603318 183.431 0.882353C183.768 1.15762 184.029 1.48379 184.213 1.86086C184.4 2.23416 184.494 2.64329 184.494 3.08824C184.498 3.6086 184.366 4.11765 184.098 4.61539C183.833 5.10935 183.441 5.51848 182.919 5.84276C182.402 6.16327 181.764 6.32353 181.006 6.32353H180.201V4.92647H180.764C181.167 4.92647 181.492 4.84729 181.741 4.68891C181.994 4.52677 182.18 4.32504 182.299 4.08371C182.418 3.83861 182.475 3.59163 182.471 3.34276C182.475 2.90158 182.32 2.53771 182.006 2.25113C181.695 1.96078 181.291 1.81561 180.793 1.81561C180.464 1.81561 180.165 1.88348 179.897 2.01923C179.632 2.15498 179.421 2.35106 179.264 2.60747C179.107 2.86011 179.027 3.16176 179.023 3.51244V15H177V3.41063C177 2.72813 177.167 2.13047 177.5 1.61765C177.837 1.10483 178.291 0.707014 178.862 0.424208C179.437 0.141403 180.08 0 180.793 0Z" fill="white" fill-opacity="0.4"/>
</svg>
